# xmcd
#
# Track frame offsets:
#	150
#	19200
#	36720
#	56370
#	73914
#	92790
#	108027
#	128161
#	144126
#	160101
#
# Disc length: 2381 seconds
#
# Revision: 1
# Processed by: cddbd v1.5.2PL0 Copyright (c) Steve Scherf et al.
# Submitted via: EasyCDDAExtractor 10.0.4.1
#
DISCID=84094b0a
DTITLE=ขนมจีน - เลิฟฟูล
DYEAR=1900
DGENRE=Musical
TTITLE0=เลิกกับฉันได้มั้ย
TTITLE1=เป็นเพื่อนเธอไม่ได้จริงๆ
TTITLE2=จบแบบไม่เสียน้ำตา
TTITLE3=จะเอาเวลามาจากไหน
TTITLE4=มีฉันเป็นอะไร
TTITLE5=คนรู้ใจไม่รู้จริง
TTITLE6=ดีกว่าไม่รู้
TTITLE7=ห้ามเลิก ห้ามตาย
TTITLE8=ดาว
TTITLE9=เป็นเพื่อนเธอไม่ได้จริงๆ (Unplugged Version)
EXTD=
EXTT0=
EXTT1=
EXTT2=
EXTT3=
EXTT4=
EXTT5=
EXTT6=
EXTT7=
EXTT8=
EXTT9=
PLAYORDER=
